<?xml version="1.0" encoding="UTF-8" standalone="no"?><!DOCTYPE svg PUBLIC "-//W3C//DTD SVG 1.1//EN" "http://www.w3.org/Graphics/SVG/1.1/DTD/svg11.dtd"><svg width="100%" height="100%" viewBox="0 0 417 417" version="1.1" xmlns="http://www.w3.org/2000/svg" xmlns:xlink="http://www.w3.org/1999/xlink" xml:space="preserve" xmlns:serif="http://www.serif.com/" style="fill-rule:evenodd;clip-rule:evenodd;stroke-linejoin:round;stroke-miterlimit:2;"><path d="M136.094,232.216c21.027,-24.858 30.677,-99.715 25.027,-117.13c-25.592,-15.905 -23.474,-47.297 0.128,-57.435c1.828,-0.94 5.791,-0.061 7.155,0.653c13.617,-5.259 21.322,-5.789 31.7,-5.772c-52.18,26.863 -19.074,49.536 22.558,59.989c22.238,5.584 69.263,2.999 80.337,-10.239c15.897,-19.013 -12.202,-35.559 -24.72,-42.039c23.665,-3.93 54.709,23.793 50.007,42.089c-10.823,42.103 -104.417,37.76 -152.168,18.583c7.833,27.486 -7.327,83.623 -12.159,96.947c39.252,25.907 78.535,27.63 128.667,21.261c-0.023,10.096 -1.349,14.503 -2.77,24.498c-8.403,4.398 -17.629,5.296 -28.51,7.878c12.089,3.384 25.917,1.629 25.917,1.629c0,0 -1.026,6.472 -0.986,8.288c-67.692,13.699 -110.928,-6.314 -150.18,-49.202l-0.003,0.002Zm-90.992,-22.448c8.389,-24.98 58.742,-35.156 74.551,-26.303c1.594,0.893 1.616,4.958 -1.492,5.486c-27.411,4.659 -49.799,15.508 -49.438,29.868c1.621,64.55 80.113,98.694 130.145,112.76c55.095,15.5 149.808,4.404 155.353,-39.163c2.057,-16.168 -7.171,-32.387 -22.862,-46.044c-0.209,-4.997 1.147,-10.865 1.895,-13.485c17.651,7.97 43.907,23.102 41.338,56.853c-6.041,79.378 -122.844,82.927 -187.127,66.514c-64.295,-16.41 -164.796,-79.71 -142.363,-146.491l-0,0.005Z" style="fill:#fff;"/></svg>