<?xml version="1.0" encoding="UTF-8"?>
<svg width="100" height="100" version="1.1" viewBox="0 0 99.999655 100" xmlns="http://www.w3.org/2000/svg" xmlns:cc="http://creativecommons.org/ns#" xmlns:dc="http://purl.org/dc/elements/1.1/" xmlns:rdf="http://www.w3.org/1999/02/22-rdf-syntax-ns#"><metadata><rdf:RDF><cc:Work rdf:about=""><dc:format>image/svg+xml</dc:format><dc:type rdf:resource="http://purl.org/dc/dcmitype/StillImage"/><dc:title/></cc:Work></rdf:RDF></metadata><path d="m44.14 59.726c0.0053-0.3435 0.61256-0.61357 1.1411-0.31387 0.46958 0.26615 0.35892 0.97731 0.93296 1.4744 0.4301 0.37238 1.5783 0.42808 1.8101-0.13675 0.29244-0.71233-1.7297-2.5181-2.3368-3.5062-0.60715-0.98801-0.78608-1.9464-0.56552-2.6208 0.39485-1.2068 1.8758-2.2711 3.0568-2.0497 1.3742 0.25766 1.8065 0.91799 2.5282 3.0715-0.03395 0.3219-1.1852 0.92502-1.4902 0.67433-0.2134-0.30239-0.23298-0.75478-0.4218-1.0497-0.20268-0.31646-0.67196-0.91449-1.2865-0.73873-0.61461 0.17581-1.0659 0.80602-0.52247 1.6092 0.69224 1.0231 1.3909 1.6927 1.8974 2.472 0.7191 1.1067 0.97882 2.158 0.4406 3.3444-0.18875 0.41608-1.5448 0.84613-2.5159 0.82947-1.2424-0.0214-2.6889-1.62-2.6681-3.0599zm11.657-3.1234c-0.61564-0.03387-0.5959-0.348-0.7691-0.93271-0.11553-0.56614-0.32076-1.2559-0.6114-1.2176-1.5416-0.28877-1.486 4.3219-1.5111 5.9504 0.03789 0.21464 0.06247 0.68809 0.56602 0.78761 0.21174 0.0301 0.50532-0.0015 0.7265-0.24621 0.5489-0.68869 0.60527-1.3377 0.9349-2.0581 0.12179-0.2898 0.85138-0.44714 0.99478-0.01079 0.77668 2.3951-1.5835 4.3406-2.8504 4.2388-3.5155-0.36556-2.4263-10.522 0.94885-10.806 0.97661-0.02749 1.6825 0.88065 1.9724 1.9573 0.29827 1.1069 0.26797 2.3271-0.40169 2.3364zm5.4462 1.8231c-0.30287 7.71e-4 -1.479-0.0405-1.6898 0.03069-0.17734 0.9586-0.25236 3.2415-0.4114 4.393-0.24077 0.58728-1.1185 0.37905-1.5127 0.10756-0.17447-1.3263-0.17447-1.3263 0.21274-10.405 0.4012-0.39495 1.1143-0.13542 1.5666-0.28872 0.29862 1.384-0.1491 3.1174 0.13671 4.3713 0.59723-0.09349 0.83322 0.05594 1.8231-0.05917 0.04354-1.2985 0.07776-3.3875 0.1107-4.3911l1.5652-0.0811c0.32696 3.3395-0.24646 6.8028-0.07439 10.627-0.46369 0.22465-1.3621 0.16569-1.7353 0.05512-0.19008-1.8866 0.26713-2.9099 0.0082-4.3601zm22.591-4.2062c0.62031 0.05342 0.77222 1.3256 0.49804 1.7621-0.5174 0.82346-1.0276 0.86897-1.9273 0.7823-0.01943-1.1106 0.11868-2.5543 0.11868-2.5543s0.70282-0.04237 1.3107 0.01023zm-18.991 8.7313c-0.13367-1.6215-0.14051-6.8886 0.17411-9.9684 2.8506-0.62728 2.9527-0.3392 3.7569-0.42878 0.23226 0.39376 0.03502 1.0278 0.22105 1.5195-0.50255 0.1404-1.7073 0.26798-2.5932 0.63437-0.09884 0.5195-0.06418 1.6828-0.05101 2.2071 0.87294-0.04368 0.99592-0.09742 2.0554-0.05021 0.14056 0.91294 0.28721 1.2818 0.02607 1.7345-0.59013 0.02532-1.5248 0.1051-2.0355 0.09514-0.09833 0.97392-0.10811 1.7245-0.03947 2.8049 0.52366 0.05941 1.4667-0.29064 2.0511-0.25421 0.07077 0.50243 0.0154 0.87891 0.07975 1.3056-0.70992 0.2923-1.3122 0.39319-1.694 0.44456-0.39703 0.01079-1.4075 0.1859-1.951-0.04423zm5.3596-10.637c0.51471-0.17438 1.0471-0.28614 1.6409-0.42214 0.11646 2.0542-0.68223 7.4919 0.07312 10.748-0.51401 0.35473-1.4923 0.39498-1.8943 0.37304-0.46301-3.1866 0.0076-7.7021 0.18072-10.698zm12.052 6.161c0.35295-0.05185 0.99524 0.09703 1.3872 0.06626 0.34358 0.01895 0.58057 1.0657 0.32162 1.7955-0.25487 0.54835-1.2427 0.19434-1.8459 0.19634 0.02484-0.47983 0.1994-1.2298 0.1375-2.0577zm7.366-3.296c0.19024 0.37373 0.51143 2.0342 0.5663 2.6102-0.53188 0.02437-0.86322-0.05438-1.1263-0.13558 0.18784-0.86689 0.34753-1.3341 0.56009-2.4746zm5.7649-0.85384c0.73398-0.17944 1.347-0.04364 1.6771 0.53219 0.42642 1.0717-0.90701 1.9951-1.7515 1.9815 0.01604-0.6865 0.08066-1.5678 0.07424-2.5137zm-20.344 3.7541c-0.19675 1.4076-0.07461 3.1537 0.04253 5.0052l-1.7633 0.1406c-0.30158-3.4866-0.06591-6.8756-0.14207-10.263 0.36027-0.12209 1.227-0.65379 1.3282-0.45012 1.7073 3.8129 2.1439 4.9056 2.5948 5.7088 0.24638-1.9747 0.279-4.6588 0.3061-6.2881 0.68395 0.02799 0.9006-0.31126 1.2645-0.23798 0.2955 0.05981 0.7888 0.06143 0.77156 0.28657-0.1575 2.0655-0.59329 7.7614-0.54707 10.488-0.54543 0.18482-0.87772 0.02901-1.2921 0.14103-1.0898-1.7234-1.8161-3.3679-2.5628-4.5294zm5.8303-5.5201c0.02073-0.36366 2.7171-0.41614 3.2354-0.20687 1.1038 0.44538 1.8381 1.132 1.9721 2.163 0.29251 2.2531-0.55078 2.5251-1.6741 2.9887 1.6258 1.1394 1.5567 2.9711 0.84379 4.0103-0.56026 0.81706-2.2712 1.1976-4.6985 0.92214-0.2548-4.5074 0.46628-6.0798 0.32118-9.8778zm10.318 10.145c-0.61546-2.1028-0.63122-2.3424-0.94459-3.0396-0.4246 0.0048-1.284-0.03086-1.5849 0.07113-0.4221 0.95422-0.54583 1.894-0.96832 2.847-0.45396 0.05332-1.0783-0.29863-1.5307-0.1453 0.46399-2.8236 2.072-5.5811 2.2035-9.7005 1.3594-0.5613 1.6624-0.36389 2.2174-0.25098 0.61432 1.7636 0.58393 4.2952 2.2278 10.121-0.50575 0.10266-0.99613-0.14692-1.6207 0.09787zm2.4703-10.07c3.2065-0.77823 4.9927 0.21848 5.1715 2.1015 0.12126 1.2794-0.39693 2.3032-2.0379 3.1323 1.4222 1.7993 1.4607 2.5779 2.202 4.2582-0.0123 0.2663-1.148 0.68792-1.4712 0.52164-0.40272-0.74803-1.2457-2.777-2.0752-3.5258-0.08078 0.82411-0.12711 1.9132-0.50125 3.6767-0.79584-0.14113-1.341-0.28814-1.6341-0.35695 0.45462-1.9563 0.43676-7.039 0.34587-9.8082z" style="fill-rule:evenodd;fill:#fff;stroke-width:.64231"/><path d="m19.815 58.659c3.6941-2.9446 1.6068-4.013 0.34704-4.8658-0.81859-0.55418-0.5997-0.91322 0.37428-1.8388 1.8849-1.7911 4.2024-2.201 6.2429-2.1715 3.8055 0.05484 6.7829 2.4116 7.1048 6.8402 0.21258 2.1374-0.52013 4.5149-1.9512 6.0044-2.0133 1.571-3.7452 1.9724-6.1226 1.8663-3.4038-0.22644-5.1654-2.1886-5.9954-5.8349z" style="fill:none;stroke-linejoin:round;stroke-opacity:.53333;stroke-width:1.2709;stroke:#000"/><path d="m19.816 58.659c3.6941-2.9446 1.6068-4.013 0.34705-4.8658-0.81859-0.55418-0.5997-0.91322 0.37428-1.8388 1.8849-1.7911 4.2024-2.201 6.2429-2.1715 3.8055 0.05484 6.7829 2.4116 7.1048 6.8402 0.21258 2.1374-0.52013 4.5149-1.9512 6.0044-2.0133 1.571-3.7452 1.9724-6.1226 1.8663-3.4038-0.22644-5.1654-2.1886-5.9954-5.8349z" style="fill-opacity:.91961;fill-rule:evenodd;fill:#d40000;stroke-width:.97073"/><path d="m13.182 30.902c2.7191-3.2146 3.967-12.895 3.2364-15.147-3.3095-2.0568-3.0356-6.1164 0.0166-7.4274 0.23637-0.12153 0.74882-0.00785 0.9252 0.084478 1.7609-0.68016 2.7573-0.74874 4.0994-0.74646-6.7478 3.4739-2.4666 6.4059 2.9172 7.7576 2.8757 0.72211 8.9569 0.38793 10.389-1.324 2.0558-2.4588-1.578-4.5985-3.1968-5.4364 3.0603-0.50821 7.0749 3.0768 6.4668 5.4428-1.3996 5.4447-13.503 4.8831-19.678 2.4031 1.0129 3.5545-0.94755 10.814-1.5724 12.537 5.076 3.3503 10.156 3.5731 16.639 2.7495-3e-3 1.3055-0.17446 1.8755-0.3583 3.168-1.0866 0.56869-2.2797 0.68486-3.6868 1.0188 1.5633 0.43759 3.3516 0.21066 3.3516 0.21066s-0.13274 0.83688-0.12751 1.0718c-8.7538 1.7715-14.345-0.81658-19.421-6.3628zm-11.767-2.9029c1.0849-3.2304 7.5965-4.5463 9.6409-3.4015 0.2061 0.11546 0.20893 0.64111-0.19299 0.70947-3.5447 0.60249-6.4399 2.0054-6.3932 3.8624 0.2096 8.3475 10.36 12.763 16.83 14.582 7.1249 2.0044 19.373 0.56944 20.09-5.0645 0.26606-2.0908-0.92729-4.1883-2.9564-5.9544-0.02713-0.64619 0.14828-1.405 0.245-1.7438 2.2826 1.0306 5.6779 2.9875 5.3458 7.3521-0.7812 10.265-15.886 10.724-24.199 8.6015-8.3144-2.1222-21.311-10.308-18.41-18.944z" style="fill-rule:evenodd;fill:#fff;stroke-width:.32153"/><path d="m12.171 56.644c1.4777 1.6607-1.8468 3.4075-3.0267 5.9196-1.0933-0.44693-1.7132-2.1787-0.91775-3.0104 1.0126-1.2908 3.2611-1.6263 3.9446-2.9093zm-2.4613 18.579c-0.16647-3.8371-0.13832-10.499 2.3011-14.883 2.7046 4.054 5.7691 6.459 12.596 6.5569-4.76 1.8279-7.9888 0.29832-10.805-2.0787-0.89213 7.6503-1.217 13.548 1.3317 21.092 0.89512 1.1839 2.0722-1.563 3.7783-4.1825 1.706-2.6195 4.3813-9.537 8.3527-11.953-1.602 4.1523-7.6504 20.494-12.263 20.788-4.5663-0.22593-5.1256-11.505-5.2918-15.341z" style="fill-rule:evenodd;fill:#fff;stroke-width:.35693"/><path d="m28.538 53.702c-0.2832 0.0053-0.56025 0.03838-0.818 0.10486 1.7409 0.97606 2.8643 1.3063 3.7112 3.6486 1.4048-2.3466-0.9111-3.786-2.8931-3.7534z" style="fill:#fff;paint-order:stroke fill markers;stroke-width:.84683"/><path d="m22.857 89.35c-0.56314 1.83 3.5381 1.5465 3.9798 1.0165 1.4509-2.6021 2.7048-4.6105 3.4018-5.5974 1.2996-1.8603 2.1355-1.6686 6.1619-2.3372 0.24142 2.4374 0.20827 5.0271 0.59412 7.8713 0.4467-0.03148 1.9845-0.18649 2.7276-0.28972-0.15694-6.8825-0.04153-14.371-0.27833-21.252-0.05146-0.37331-3.1441-0.40621-3.4415-0.20111-5.0749 6.4801-9.7268 13.797-13.145 20.789zm34.503-20.351c-0.86175 2.6818-1.1186 18.954-0.98415 20.679 0.04471 1.4044 2.1947 1.2509 3.7644 0.89851 0.04747-7.0196 0.45662-14.996 0.80209-20.789 0.09498-0.78322-3.4349-1.2379-3.5825-0.78926zm18.458 3.1133c0.29915 0.31629 2.093 0.19674 3.3139 0.1898-0.1479 5.058-1.4624 17.573-0.80226 18.3 0.18054 0.19878 3.3077 0.1645 3.4889 0.0071 0.08385-0.07317 0.64517-12.454 0.91793-18.602 1.1571-0.13028 2.618 0.13894 3.5091-0.0082 0.85354-0.13075 0.64744-2.7772 0.41792-2.9146-0.27724-0.16594-10.274-0.08713-10.613 0.03375-0.21408 0.0763-0.55574 2.0851-0.23337 2.9942zm-12.314 18.084c0.5807-4.82e-4 6.2122 0.47477 9.9697 0.24422 0.63196-1.0449 0.45448-2.2456 0.0145-3.1813-1.8751-0.12111-5.4488 0.48566-6.2564-0.25624 0.14992-3.158 0.32531-6.2604 0.7674-6.4527 0.63198-0.27459 4.4382 0.11159 4.79-0.33389 0.43806-0.54187 0.25054-2.1647-0.0083-2.6188-0.2855-0.5021-3.3083 0.11168-4.8161-0.15747-0.16921-1.9478 0.15652-3.615 0.54604-5.3056 1.0052-0.35654 4.4177 0.18258 5.7081-0.29577 0.27069-0.99715 0.34627-1.4255-0.08183-2.6323-3.0101 0.13505-9.2492-0.65972-9.6466 0.2791-0.24655 0.72707-1.4549 13.486-0.98692 20.711zm-13.242-21.538c-1.4751-0.23471-5.3583-0.59426-6.2919 0.43144-0.6339 0.6965-1.5212 14.034-1.5136 21.09 1.0062 0.10103 3.3494 0.51601 3.3148-0.14811-0.16006-3.2898 0.31569-5.4716 0.16011-7.6654 2.367 2.6879 3.6111 6.0058 5.2205 8.0496 0 0 2.9916 0.30591 2.8024-1.3377-1.0441-3.9328-4.6981-7.9393-5.438-9.4563 3.6194-0.2772 6.2019-3.4682 5.8894-6.7827-0.55691-2.8809-1.8582-3.8161-4.1439-4.1799zm37.203 21.667c0.01261 0.35202 8.7791 0.15907 9.0586-0.10413 0.40807-0.38418 0.32275-2.7471-0.20369-2.7602-0.38054-0.02166-4.6674-0.04057-5.0118-0.13708-0.13462-2.4944-0.1389-4.076 0.21939-6.3233 1.0164-0.169 4.761-0.13815 5.1552-0.38513 0.33617-0.21064 0.84057-2.7595 0.45003-3.1216-0.29653-0.27482-4.1702 0.2722-5.1054 0.16544 0.01345-1.5241 0.11271-4.2519 0.35388-5.5843 1.3529-0.11936 3.9622-0.07785 6.0865-0.33751 0.31944-1.0097 0.23761-2.6012 0.06141-2.8198-3.1168 0.04558-8.6773-0.44694-9.3322 0.02627-0.65494 0.47346-1.9735 14.562-1.7321 21.38zm-35.914-16.372c-0.08743 2.2435-4.2339 3.3608-5.3176 3.343-0.01463-1.3903 0.22798-4.5774 0.52551-5.7714 2.8136-0.21542 4.8841 0.06544 4.7921 2.4285zm-15.499 0.46825c0.0746 1.519 0.18735 4.4488 0.13449 6.3376-1.2509 0.13998-2.8485 0.12348-3.9715-0.0158 0.97647-2.288 1.9818-4.2942 3.8368-6.3218z" style="fill-rule:evenodd;fill:#fff;stroke-width:.46838"/></svg>
